<?xml version="1.0" encoding="UTF-8"?>
<svg width="80" height="80" viewBox="0 0 80 80" xmlns="http://www.w3.org/2000/svg">
  <path id="element_1762196579424_0.12268920111158987" d="M 40 0 C 62 0 80 17 80 40 C 80 62 62 80 40 80 C 17 80 0 62 0 40 C 0 17 17 0 40 0 Z" stroke="none" stroke-width="0" fill="#000000" fill-opacity="1" stroke-opacity="1" />
  <path id="element_1762202030863_0.040226539081983814" d="M 52.58 18.9 L 56.6 58.29" stroke="#b8b2b2" stroke-width="6" fill="none" fill-opacity="1" stroke-opacity="1" stroke-linecap="round" stroke-linejoin="round" fill-rule="nonzero" />
  <path id="element_1762202030864_0.4363860073808983" d="M 16.8 36.25 L 29.64 58.29 L 52.61 18.9" stroke="#ffffff" stroke-width="6" fill="none" fill-opacity="1" stroke-opacity="1" stroke-linecap="round" stroke-linejoin="round" fill-rule="nonzero" />
  <path id="element_1762202030865_0.6084905854596343" d="M 51.09 18.89 C 51.09 18.06 51.74 17.4 52.58 17.4 C 53.41 17.4 54.06 18.06 54.06 18.89 C 54.06 19.72 53.41 20.38 52.58 20.38 C 51.74 20.38 51.09 19.72 51.09 18.89 Z" stroke="none" stroke-width="3" fill="#000000" fill-opacity="1" stroke-opacity="1" stroke-linecap="round" stroke-linejoin="round" fill-rule="nonzero" />
  <path id="element_1762202030865_0.5015553776563825" d="M 55.12 58.3 C 55.12 57.47 55.77 56.81 56.6 56.81 C 57.44 56.81 58.09 57.47 58.09 58.3 C 58.09 59.13 57.44 59.79 56.6 59.79 C 55.77 59.79 55.12 59.13 55.12 58.3 Z" stroke="none" stroke-width="3" fill="#d75b5b" fill-opacity="1" stroke-opacity="1" stroke-linecap="round" stroke-linejoin="round" fill-rule="nonzero" />
  <path id="element_1762202030866_0.5741234465279771" d="M 15.27 36.25 C 15.27 35.42 15.93 34.76 16.75 34.76 C 17.59 34.76 18.25 35.42 18.25 36.25 C 18.25 37.08 17.59 37.74 16.75 37.74 C 15.93 37.74 15.27 37.08 15.27 36.25 Z" stroke="none" stroke-width="3" fill="#32a44f" fill-opacity="1" stroke-opacity="1" stroke-linecap="round" stroke-linejoin="round" fill-rule="nonzero" />
  <path id="element_1762202030867_0.07905876945202273" d="M 28.11 58.39 C 28.11 57.56 28.77 56.9 29.59 56.9 C 30.43 56.9 31.09 57.56 31.09 58.39 C 31.09 59.22 30.43 59.88 29.59 59.88 C 28.77 59.88 28.11 59.22 28.11 58.39 Z" stroke="none" stroke-width="3" fill="#000000" fill-opacity="1" stroke-opacity="1" stroke-linecap="round" stroke-linejoin="round" fill-rule="nonzero" />
</svg>