<svg width="82" height="80" viewBox="0 0 82 80" xmlns="http://www.w3.org/2000/svg">
  <g id="group_1762227877861_hahag7" data-name="Group 3">
    <path id="element_1762227828619_0.3697193803290416" d="M 41 0 C 63.55 0 82 17 82 40 C 82 62 63.55 80 41 80 C 17.425 80 0 62 0 40 C 0 17 17.425 0 41 0 Z" stroke="none" stroke-width="0" fill="#000000" fill-opacity="1" stroke-opacity="1" />
    <path id="element_1762227828620_0.6486293794810729" d="M 53.78 19.2 L 57.8 58.59" stroke="#b8b2b2" stroke-width="8" fill="none" fill-opacity="1" stroke-opacity="1" stroke-linecap="round" stroke-linejoin="round" fill-rule="nonzero" />
    <path id="element_1762227828620_0.9397928425277541" d="M 17.986 36.566 L 30.826 58.606 L 53.796 19.216" stroke="#ffffff" stroke-width="8" fill="none" fill-opacity="1" stroke-opacity="1" stroke-linecap="round" stroke-linejoin="round" fill-rule="nonzero" />
    <path id="element_1762227828621_0.04042572649870646" d="M 52.3 19.19 C 52.3 18.36 52.95 17.7 53.79 17.7 C 54.62 17.7 55.27 18.36 55.27 19.19 C 55.27 20.02 54.62 20.68 53.79 20.68 C 52.95 20.68 52.3 20.02 52.3 19.19 Z" stroke="#000000" stroke-width="1" fill="#47d6ff" fill-opacity="1" stroke-opacity="1" stroke-linecap="round" stroke-linejoin="round" fill-rule="nonzero" />
    <path id="element_1762227828621_0.6099554779528024" d="M 56.8 58.59 C 56.8 58.03 57.24 57.59 57.8 57.59 C 58.37 57.59 58.8 58.03 58.8 58.59 C 58.8 59.15 58.37 59.59 57.8 59.59 C 57.24 59.59 56.8 59.15 56.8 58.59 Z" stroke="#000000" stroke-width="1" fill="#d75b5b" fill-opacity="1" stroke-opacity="1" stroke-linecap="round" stroke-linejoin="round" fill-rule="nonzero" />
    <path id="element_1762227828621_0.47547578056367834" d="M 29.34 58.62 C 29.34 57.79 30 57.13 30.82 57.13 C 31.66 57.13 32.32 57.79 32.32 58.62 C 32.32 59.45 31.66 60.11 30.82 60.11 C 30 60.11 29.34 59.45 29.34 58.62 Z" stroke="#000000" stroke-width="1" fill="#47d6ff" fill-opacity="1" stroke-opacity="1" stroke-linecap="round" stroke-linejoin="round" fill-rule="nonzero" />
    <path id="element_1762227828622_0.017649040139261274" d="M 15.98 36.57 C 15.98 35.46 16.87 34.57 17.97 34.57 C 19.09 34.57 19.98 35.46 19.98 36.57 C 19.98 37.68 19.09 38.57 17.97 38.57 C 16.87 38.57 15.98 37.68 15.98 36.57 Z" stroke="#000000" stroke-width="1" fill="#32a44f" fill-opacity="1" stroke-opacity="1" stroke-linecap="round" stroke-linejoin="round" fill-rule="nonzero" />
  </g>
</svg>