<svg width="80" height="80" viewBox="0.010000000707805157 0 80 80" xmlns="http://www.w3.org/2000/svg">
  <path id="element_1762196579424_0.12268920111158987" d="M 40.01 0 C 62.01 0 80.01 17 80.01 40 C 80.01 62 62.01 80 40.01 80 C 17.01 80 0.01 62 0.01 40 C 0.01 17 17.01 0 40.01 0 Z" stroke="none" stroke-width="0" fill="#000000" fill-opacity="1" stroke-opacity="1" />
  <path id="element_1762196579424_0.4320375891082152" d="M 52.45 18.99 L 56.48 58.38" stroke="#b8b2b2" stroke-width="6" fill="none" fill-opacity="1" stroke-opacity="1" stroke-linecap="round" stroke-linejoin="round" />
  <path id="element_1762196579424_0.9479678288856886" d="M 16.64 36.34 L 29.48 58.38 L 52.45 18.99" stroke="white" stroke-width="6" fill="none" fill-opacity="1" stroke-opacity="1" stroke-linecap="round" stroke-linejoin="round" />
  <path id="element_1762196579424_0.9710908404906611" d="M 50.96 18.98 C 50.96 18.15 51.62 17.49 52.45 17.49 C 53.28 17.49 53.94 18.15 53.94 18.98 C 53.94 19.81 53.28 20.47 52.45 20.47 C 51.62 20.47 50.96 19.81 50.96 18.98 Z" stroke="#ffffff" stroke-width="0" fill="#000000" fill-opacity="1" stroke-opacity="1" stroke-linecap="round" stroke-linejoin="round" fill-rule="nonzero" />
  <path id="element_1762196579424_0.14848603876503352" d="M 54.99 58.39 C 54.99 57.56 55.65 56.9 56.48 56.9 C 57.31 56.9 57.97 57.56 57.97 58.39 C 57.97 59.22 57.31 59.88 56.48 59.88 C 55.65 59.88 54.99 59.22 54.99 58.39 Z" stroke="#ffffff" stroke-width="0" fill="#ff5c5c" fill-opacity="1" stroke-opacity="1" stroke-linecap="round" stroke-linejoin="round" fill-rule="nonzero" />
  <path id="element_1762196579424_0.19248389446276826" d="M 15.14 36.34 C 15.14 35.51 15.8 34.85 16.63 34.85 C 17.46 34.85 18.12 35.51 18.12 36.34 C 18.12 37.17 17.46 37.83 16.63 37.83 C 15.8 37.83 15.14 37.17 15.14 36.34 Z" stroke="#ffffff" stroke-width="0" fill="#75cc77" fill-opacity="1" stroke-opacity="1" stroke-linecap="round" stroke-linejoin="round" fill-rule="nonzero" />
  <path id="element_1762196579424_0.7255987981497851" d="M 27.98 58.48 C 27.98 57.65 28.64 56.99 29.47 56.99 C 30.3 56.99 30.96 57.65 30.96 58.48 C 30.96 59.31 30.3 59.97 29.47 59.97 C 28.64 59.97 27.98 59.31 27.98 58.48 Z" stroke="#ffffff" stroke-width="0" fill="#000000" fill-opacity="1" stroke-opacity="1" stroke-linecap="round" stroke-linejoin="round" fill-rule="nonzero" />
</svg>