<?xml version="1.0" encoding="UTF-8"?>
<svg width="82" height="80" viewBox="-1 0 82 80" xmlns="http://www.w3.org/2000/svg">
  <path id="element_1762211515393_0.19047585086976615" d="M 40 0 C 62.55 0 81 17 81 40 C 81 62 62.55 80 40 80 C 16.425 80 -1 62 -1 40 C -1 17 16.425 0 40 0 Z" stroke="none" stroke-width="0" fill="#000000" fill-opacity="1" stroke-opacity="1" />
  <path id="element_1762211651960_0.4731694022729722" d="M 52.78 19.2 L 56.8 58.59" stroke="#b8b2b2" stroke-width="8" fill="none" fill-opacity="1" stroke-opacity="1" stroke-linecap="round" stroke-linejoin="round" fill-rule="nonzero" />
  <path id="element_1762211651961_0.09988733129535521" d="M 16.986 36.566 L 29.826 58.606 L 52.796 19.216" stroke="#ffffff" stroke-width="8" fill="none" fill-opacity="1" stroke-opacity="1" stroke-linecap="round" stroke-linejoin="round" fill-rule="nonzero" />
  <path id="element_1762211515394_0.10886040905468253" d="M 51.3 19.19 C 51.3 18.36 51.95 17.7 52.79 17.7 C 53.62 17.7 54.27 18.36 54.27 19.19 C 54.27 20.02 53.62 20.68 52.79 20.68 C 51.95 20.68 51.3 20.02 51.3 19.19 Z" stroke="none" stroke-width="0" fill="#47d6ff" fill-opacity="1" stroke-opacity="1" stroke-linecap="round" stroke-linejoin="round" fill-rule="nonzero" />
  <path id="element_1762211515394_0.07469110946042534" d="M 55.8 58.59 C 55.8 58.03 56.24 57.59 56.8 57.59 C 57.37 57.59 57.8 58.03 57.8 58.59 C 57.8 59.15 57.37 59.59 56.8 59.59 C 56.24 59.59 55.8 59.15 55.8 58.59 Z" stroke="none" stroke-width="0" fill="#d75b5b" fill-opacity="1" stroke-opacity="1" stroke-linecap="round" stroke-linejoin="round" fill-rule="nonzero" />
  <path id="element_1762211515394_0.48879348336293293" d="M 28.34 58.62 C 28.34 57.79 29 57.13 29.82 57.13 C 30.66 57.13 31.32 57.79 31.32 58.62 C 31.32 59.45 30.66 60.11 29.82 60.11 C 29 60.11 28.34 59.45 28.34 58.62 Z" stroke="none" stroke-width="0" fill="#47d6ff" fill-opacity="1" stroke-opacity="1" stroke-linecap="round" stroke-linejoin="round" fill-rule="nonzero" />
  <path id="element_1762211515394_0.5116345334005035" d="M 14.98 36.57 C 14.98 35.46 15.87 34.57 16.97 34.57 C 18.09 34.57 18.98 35.46 18.98 36.57 C 18.98 37.68 18.09 38.57 16.97 38.57 C 15.87 38.57 14.98 37.68 14.98 36.57 Z" stroke="none" stroke-width="0" fill="#32a44f" fill-opacity="1" stroke-opacity="1" stroke-linecap="round" stroke-linejoin="round" fill-rule="nonzero" />
</svg>