<svg xmlns="http://www.w3.org/2000/svg" width="80" height="80">
  <path d="M40 0c22 0 40 17 40 40 0 22-18 40-40 40C17 80 0 62 0 40 0 17 17 0 40 0"/>
  <path fill="none" stroke="#b8b2b2" stroke-linecap="round" stroke-linejoin="round" stroke-width="8" d="m52.45 18.99 4.03 39.39"/>
  <path fill="none" stroke="#fff" stroke-linecap="round" stroke-linejoin="round" stroke-width="8" d="m16.64 36.34 12.84 22.04 22.97-39.39"/>
  <path d="M50.77 18.8c0-.83.66-1.49 1.49-1.49s1.49.66 1.49 1.49-.66 1.49-1.49 1.49-1.49-.66-1.49-1.49"/>
  <path fill="#ff5c5c" d="M54.82 57.84c0-.83.66-1.49 1.49-1.49s1.49.66 1.49 1.49-.66 1.49-1.49 1.49-1.49-.66-1.49-1.49"/>
  <path fill="#75cc77" d="M15.05 36.42c0-.83.66-1.49 1.49-1.49s1.49.66 1.49 1.49-.66 1.49-1.49 1.49-1.49-.66-1.49-1.49"/>
  <path d="M27.98 57.84c0-.83.66-1.49 1.49-1.49s1.49.66 1.49 1.49-.66 1.49-1.49 1.49-1.49-.66-1.49-1.49"/>
</svg>