<?xml version="1.0" encoding="UTF-8"?>
<svg width="924.52" height="674.1899999999999" viewBox="238.04000000000002 12.979999999999997 924.52 674.1899999999999" xmlns="http://www.w3.org/2000/svg">
  <path d="M 294.31 263.19 L 277.31 280.19 L 294.31 297.19" stroke="#000000" stroke-width="2" fill="none" fill-opacity="1" stroke-opacity="1" stroke-linejoin="bevel" vector-effect="non-scaling-stroke" />
  <path d="M 289.04 250.38 C 306.16 250.38 320.04 264.26 320.04 281.38 C 320.04 298.5 306.16 312.38 289.04 312.38 C 271.92 312.38 258.04 298.5 258.04 281.38 C 258.04 264.26 271.92 250.38 289.04 250.38 Z" stroke="#000000" stroke-width="2" fill="none" fill-opacity="1" stroke-opacity="1" vector-effect="non-scaling-stroke" />
  <path d="M 427 318.81 C 444.12 318.81 458 332.69 458 349.81 C 458 366.93 444.12 380.81 427 380.81 C 409.88 380.81 396 366.93 396 349.81 C 396 332.69 409.88 318.81 427 318.81 Z" stroke="#000000" stroke-width="2" fill="none" fill-opacity="1" stroke-opacity="1" vector-effect="non-scaling-stroke" />
  <path d="M 436.19 336.37 L 436.19 360.37 L 412.19 360.37" stroke="#000000" stroke-width="2" fill="none" fill-opacity="1" stroke-opacity="1" stroke-linejoin="bevel" vector-effect="non-scaling-stroke" />
  <path d="M 1093.7 63.37 L 1129.7 63.37" stroke="#000000" stroke-width="2" fill="none" fill-opacity="1" stroke-opacity="1" vector-effect="non-scaling-stroke" />
  <path d="M 1111.56 32.98 C 1128.68 32.98 1142.56 46.86 1142.56 63.98 C 1142.56 81.1 1128.68 94.98 1111.56 94.98 C 1094.44 94.98 1080.56 81.1 1080.56 63.98 C 1080.56 46.86 1094.44 32.98 1111.56 32.98 Z" stroke="#000000" stroke-width="2" fill="none" fill-opacity="1" stroke-opacity="1" vector-effect="non-scaling-stroke" />
  <path d="M 425.64 261.61 L 442.64 278.61 L 425.64 295.61" stroke="#000000" stroke-width="2" fill="none" fill-opacity="1" stroke-opacity="1" stroke-linejoin="bevel" vector-effect="non-scaling-stroke" />
  <path d="M 432.08 249.23 C 449.2 249.23 463.08 263.11 463.08 280.23 C 463.08 297.35 449.2 311.23 432.08 311.23 C 414.96 311.23 401.08 297.35 401.08 280.23 C 401.08 263.11 414.96 249.23 432.08 249.23 Z" stroke="#000000" stroke-width="2" fill="none" fill-opacity="1" stroke-opacity="1" vector-effect="non-scaling-stroke" />
  <path d="M 1025.45 51.55 L 1051.54 77.46 M 1025.54 77.55 L 1051.45 51.46" stroke="#000000" stroke-width="2" fill="none" fill-opacity="1" stroke-opacity="1" vector-effect="non-scaling-stroke" />
  <path d="M 1038.65 33.53 C 1055.77 33.53 1069.65 47.41 1069.65 64.53 C 1069.65 81.65 1055.77 95.53 1038.65 95.53 C 1021.53 95.53 1007.65 81.65 1007.65 64.53 C 1007.65 47.41 1021.53 33.53 1038.65 33.53 Z" stroke="#000000" stroke-width="2" fill="none" fill-opacity="1" stroke-opacity="1" vector-effect="non-scaling-stroke" />
  <path d="M 290.49 183.1 C 307.61 183.1 321.49 196.98 321.49 214.1 C 321.49 231.22 307.61 245.1 290.49 245.1 C 273.37 245.1 259.49 231.22 259.49 214.1 C 259.49 196.98 273.37 183.1 290.49 183.1 Z" stroke="#000000" stroke-width="2" fill="none" fill-opacity="1" stroke-opacity="1" vector-effect="non-scaling-stroke" />
  <path d="M 279.27 227.73 L 279.27 203.73 L 303.27 203.73" stroke="#000000" stroke-width="2" fill="none" fill-opacity="1" stroke-opacity="1" vector-effect="non-scaling-stroke" />
  <path d="M 345.44 220.57 L 362.44 203.57 L 379.44 220.57" stroke="#000000" stroke-width="2" fill="none" fill-opacity="1" stroke-opacity="1" stroke-linejoin="bevel" vector-effect="non-scaling-stroke" />
  <path d="M 361.68 183.22 C 378.8 183.22 392.68 197.1 392.68 214.22 C 392.68 231.34 378.8 245.22 361.68 245.22 C 344.56 245.22 330.68 231.34 330.68 214.22 C 330.68 197.1 344.56 183.22 361.68 183.22 Z" stroke="#000000" stroke-width="2" fill="none" fill-opacity="1" stroke-opacity="1" vector-effect="non-scaling-stroke" />
  <path d="M 431.18 180.49 C 448.3 180.49 462.18 194.37 462.18 211.49 C 462.18 228.61 448.3 242.49 431.18 242.49 C 414.06 242.49 400.18 228.61 400.18 211.49 C 400.18 194.37 414.06 180.49 431.18 180.49 Z" stroke="#000000" stroke-width="2" fill="none" fill-opacity="1" stroke-opacity="1" vector-effect="non-scaling-stroke" />
  <path d="M 415.67 201.9 L 439.67 201.9 L 439.67 225.9" stroke="#000000" stroke-width="2" fill="none" fill-opacity="1" stroke-opacity="1" stroke-linejoin="bevel" vector-effect="non-scaling-stroke" />
  <path d="M 532.36 604.21 L 594.36 604.21 L 594.36 666.21 L 532.36 666.21 Z" stroke="#231F20" stroke-width="2" fill="none" fill-opacity="1" stroke-opacity="1" stroke-linejoin="bevel" vector-effect="non-scaling-stroke" />
  <path d="M 551.62 629.24 L 562.62 645.24 L 573.62 629.24 Z" stroke="#000000" stroke-width="2" fill="none" fill-opacity="1" stroke-opacity="1" stroke-linejoin="bevel" vector-effect="non-scaling-stroke" />
  <path d="M 945.82 343.3 L 957.82 355.3 L 981.82 331.3" stroke="#000000" stroke-width="2" fill="none" fill-opacity="1" stroke-opacity="1" stroke-linejoin="bevel" vector-effect="non-scaling-stroke" />
  <path d="M 932.26 312.42 L 994.26 312.42 L 994.26 374.42 L 932.26 374.42 Z" stroke="#000000" stroke-width="2" fill="none" fill-opacity="1" stroke-opacity="1" vector-effect="non-scaling-stroke" />
  <path d="M 1031.89 333.69 L 1048.89 350.69 L 1065.89 333.69" stroke="#000000" stroke-width="2" fill="none" fill-opacity="1" stroke-opacity="1" stroke-linejoin="bevel" vector-effect="non-scaling-stroke" />
  <path d="M 1018.13 309.93 L 1080.13 309.93 L 1080.13 371.93 L 1018.13 371.93 Z" stroke="#000000" stroke-width="2" fill="none" fill-opacity="1" stroke-opacity="1" vector-effect="non-scaling-stroke" />
  <path d="M 783.54 227.72 C 795.65 239.83 795.65 259.45 783.54 271.56 C 771.43 283.67 751.81 283.67 739.7 271.56 C 727.59 259.45 727.59 239.83 739.7 227.72 C 751.81 215.61 771.43 215.61 783.54 227.72 Z" stroke="#000000" stroke-width="2" fill="none" fill-opacity="1" stroke-opacity="1" vector-effect="non-scaling-stroke" />
  <path d="M 772.6 259.67 C 772.6 259.67 771.6 263.67 762.6 263.67 C 753.6 263.67 750.6 256.67 750.6 248.67 C 750.6 240.67 753.6 233.67 762.6 233.67 C 771.6 233.67 772.6 237.67 772.6 237.67 M 745.6 246.67 L 764.6 246.67 M 745.6 250.67 L 764.6 250.67" stroke="#000000" stroke-width="2" fill="none" fill-opacity="1" stroke-opacity="1" vector-effect="non-scaling-stroke" />
  <path d="M 289.18 321.01 C 306.3 321.01 320.18 334.89 320.18 352.01 C 320.18 369.13 306.3 383.01 289.18 383.01 C 272.06 383.01 258.18 369.13 258.18 352.01 C 258.18 334.89 272.06 321.01 289.18 321.01 Z" stroke="#000000" stroke-width="2" fill="none" fill-opacity="1" stroke-opacity="1" vector-effect="non-scaling-stroke" />
  <path d="M 302.85 362 L 278.85 362 L 278.85 338" stroke="#000000" stroke-width="2" fill="none" fill-opacity="1" stroke-opacity="1" stroke-linejoin="bevel" vector-effect="non-scaling-stroke" />
  <path d="M 344.67 342.15 L 361.67 359.15 L 378.67 342.15" stroke="#000000" stroke-width="2" fill="none" fill-opacity="1" stroke-opacity="1" stroke-linejoin="bevel" vector-effect="non-scaling-stroke" />
  <path d="M 360.78 317.65 C 377.9 317.65 391.78 331.53 391.78 348.65 C 391.78 365.77 377.9 379.65 360.78 379.65 C 343.66 379.65 329.78 365.77 329.78 348.65 C 329.78 331.53 343.66 317.65 360.78 317.65 Z" stroke="#000000" stroke-width="2" fill="none" fill-opacity="1" stroke-opacity="1" vector-effect="non-scaling-stroke" />
  <path d="M 1017.91 394.85 L 1079.91 394.85 L 1079.91 456.85 L 1017.91 456.85 Z" stroke="#231F20" stroke-width="2" fill="none" fill-opacity="1" stroke-opacity="1" stroke-linejoin="bevel" vector-effect="non-scaling-stroke" />
  <path d="M 1055.19 417.47 L 1062.19 424.47 L 1055.19 431.47 M 1028.19 424.47 L 1028.19 424.47 L 1062.19 424.47 M 1066.19 415.47 L 1066.19 433.47" stroke="#000000" stroke-width="2" fill="none" fill-opacity="1" stroke-opacity="1" stroke-linejoin="bevel" vector-effect="non-scaling-stroke" />
  <path d="M 687.64 604.19 L 749.64 604.19 L 749.64 666.19 L 687.64 666.19 Z" stroke="#231F20" stroke-width="2" fill="none" fill-opacity="1" stroke-opacity="1" stroke-linejoin="bevel" vector-effect="non-scaling-stroke" />
  <path d="M 711.95 624.66 L 727.95 635.66 L 711.95 646.66 Z" stroke="#000000" stroke-width="2" fill="none" fill-opacity="1" stroke-opacity="1" stroke-linejoin="bevel" vector-effect="non-scaling-stroke" />
  <path d="M 610.12 605.17 L 672.12 605.17 L 672.12 667.17 L 610.12 667.17 Z" stroke="#231F20" stroke-width="2" fill="none" fill-opacity="1" stroke-opacity="1" stroke-linejoin="bevel" vector-effect="non-scaling-stroke" />
  <path d="M 646.58 624.79 L 630.58 635.79 L 646.58 646.79 Z" stroke="#000000" stroke-width="2" fill="none" fill-opacity="1" stroke-opacity="1" stroke-linejoin="bevel" vector-effect="non-scaling-stroke" />
  <path d="M 345 483.45 L 409 483.45 L 409 547.45 L 345 547.45 Z" stroke="#000000" stroke-width="2" fill="none" fill-opacity="1" stroke-opacity="1" stroke-linecap="round" stroke-linejoin="round" vector-effect="non-scaling-stroke" />
  <path d="M 359.21 496.6 C 359.21 492.5 363.66 489.93 367.21 491.98 C 367.22 491.99 367.23 491.99 367.23 492 L 399.23 510.66 C 402.77 512.71 402.77 517.82 399.23 519.88 L 367.23 538.54 C 363.69 540.61 359.23 538.07 359.21 533.96 C 359.21 533.95 359.21 533.95 359.21 533.94 Z" stroke="#000000" stroke-width="2" fill="none" fill-opacity="1" stroke-opacity="1" vector-effect="non-scaling-stroke" />
  <path d="M 418.34 486.11 L 482.34 486.11 L 482.34 550.11 L 418.34 550.11 Z" stroke="#000000" stroke-width="2" fill="none" fill-opacity="1" stroke-opacity="1" stroke-linecap="round" stroke-linejoin="round" vector-effect="non-scaling-stroke" />
  <path d="M 449 540 C 435 540 426 525 433 512 C 436 507 440 504 446 503 C 461 500 465 499 470 492 C 473 497 476 503 476 513 C 476 528 463 540 449 540 Z M 425 543 C 425 535 430 528 439 527 C 445 525 452 521 454 519" stroke="#000000" stroke-width="2" fill="none" fill-opacity="1" stroke-opacity="1" vector-effect="non-scaling-stroke" />
  <path d="M 487.65 484.29 L 551.65 484.29 L 551.65 548.29 L 487.65 548.29 Z" stroke="#000000" stroke-width="2" fill="none" fill-opacity="1" stroke-opacity="1" stroke-linecap="round" stroke-linejoin="round" vector-effect="non-scaling-stroke" />
  <path d="M 531.86 501.51 L 494.07 539.3 M 499.46 512.63 C 495.01 508.91 496.25 501.76 501.7 499.77 C 504.45 498.76 507.54 499.44 509.62 501.51 C 505.52 497.4 507.4 490.4 513.01 488.9 C 515.84 488.14 518.86 489.1 520.74 491.35 C 524.46 486.9 531.61 488.14 533.6 493.59 C 534.61 496.34 533.93 499.43 531.86 501.51 C 535.97 497.41 542.97 499.29 544.47 504.9 C 545.23 507.73 544.27 510.75 542.02 512.63 C 546.47 516.35 545.23 523.5 539.78 525.49 C 537.03 526.5 533.94 525.82 531.86 523.75 C 535.96 527.86 534.08 534.86 528.47 536.36 C 525.64 537.12 522.62 536.16 520.74 533.91 C 517.02 538.36 509.87 537.12 507.88 531.67 C 506.87 528.92 507.55 525.83 509.62 523.75 C 505.34 527.68 498.41 525.5 497.14 519.83 C 496.56 517.2 497.42 514.45 499.41 512.63 M 509.62 501.51 L 531.86 523.75" stroke="#000000" stroke-width="2" fill="none" fill-opacity="1" stroke-opacity="1" vector-effect="non-scaling-stroke" />
  <path d="M 628.91 476.3 L 692.91 476.3 L 692.91 540.3 L 628.91 540.3 Z" stroke="#000000" stroke-width="2" fill="none" fill-opacity="1" stroke-opacity="1" stroke-linecap="round" stroke-linejoin="round" vector-effect="non-scaling-stroke" />
  <path d="M 682.91 492.9 L 653.58 522.23 L 640.25 508.9" stroke="#000000" stroke-width="2" fill="none" fill-opacity="1" stroke-opacity="1" vector-effect="non-scaling-stroke" />
  <path d="M 767.59 481.64 L 831.59 481.64 L 831.59 545.64 L 767.59 545.64 Z" stroke="#000000" stroke-width="2" fill="none" fill-opacity="1" stroke-opacity="1" stroke-linecap="round" stroke-linejoin="round" vector-effect="non-scaling-stroke" />
  <path d="M 778.03 491.92 C 777.62 490.99 778.38 489.97 779.39 490.09 C 779.52 490.1 779.64 490.13 779.76 490.19 L 822.43 507.52 C 823.38 507.91 823.55 509.18 822.74 509.81 C 822.6 509.92 822.44 510 822.26 510.04 L 805.93 514.26 C 804.05 514.74 802.58 516.21 802.09 518.08 L 797.88 534.42 C 797.63 535.41 796.39 535.76 795.66 535.04 C 795.53 534.91 795.43 534.76 795.36 534.59 Z" stroke="#000000" stroke-width="2" fill="none" fill-opacity="1" stroke-opacity="1" vector-effect="non-scaling-stroke" />
  <path d="M 838.25 484.3 L 902.25 484.3 L 902.25 548.3 L 838.25 548.3 Z" stroke="#000000" stroke-width="2" fill="none" fill-opacity="1" stroke-opacity="1" stroke-linecap="round" stroke-linejoin="round" vector-effect="non-scaling-stroke" />
  <path d="M 869.53 519.38 L 869.53 540.71 M 869.53 492.71 L 869.53 500.71 M 848.2 500.71 C 846.72 500.71 845.53 501.9 845.53 503.38 L 845.53 516.71 C 845.53 518.18 846.72 519.38 848.2 519.38 L 882.86 519.38 C 883.96 519.38 885.04 519.04 885.94 518.4 L 895.07 512.22 C 896.57 511.16 896.57 508.93 895.07 507.86 L 885.94 501.68 C 885.04 501.05 883.96 500.71 882.86 500.71 Z" stroke="#000000" stroke-width="2" fill="none" fill-opacity="1" stroke-opacity="1" vector-effect="non-scaling-stroke" />
  <path d="M 909.27 484.3 L 973.27 484.3 L 973.27 548.3 L 909.27 548.3 Z" stroke="#000000" stroke-width="2" fill="none" fill-opacity="1" stroke-opacity="1" stroke-linecap="round" stroke-linejoin="round" vector-effect="non-scaling-stroke" />
  <path d="M 933.15 519.99 C 933.15 518.51 931.96 517.32 930.48 517.32 L 922.65 517.32 C 920.63 517.71 918.95 515.78 919.61 513.84 C 919.8 513.29 920.16 512.81 920.65 512.49 L 938.88 494.26 C 940.13 493.01 942.17 493.01 943.43 494.26 L 961.65 512.49 C 963.36 513.64 963.18 516.2 961.34 517.1 C 960.81 517.35 960.22 517.43 959.65 517.32 L 951.82 517.32 C 950.34 517.32 949.15 518.51 949.15 519.99 L 949.15 525.32 C 949.15 526.79 947.96 527.99 946.48 527.99 L 935.82 527.99 C 934.34 527.99 933.15 526.79 933.15 525.32 Z M 933.15 538.65 L 949.15 538.65" stroke="#000000" stroke-width="2" fill="none" fill-opacity="1" stroke-opacity="1" vector-effect="non-scaling-stroke" />
  <path d="M 980.29 484.3 L 1044.29 484.3 L 1044.29 548.3 L 980.29 548.3 Z" stroke="#000000" stroke-width="2" fill="none" fill-opacity="1" stroke-opacity="1" stroke-linecap="round" stroke-linejoin="round" vector-effect="non-scaling-stroke" />
  <path d="M 1040.46 526.35 C 1040.46 529.3 1038.07 531.69 1035.12 531.69 L 1000 531.69 C 998.58 531.69 997.23 532.25 996.23 533.25 L 990.36 539.12 C 989.32 540.15 987.56 539.68 987.19 538.27 C 987.15 538.11 987.12 537.95 987.12 537.78 L 987.12 494.35 C 987.12 491.41 989.51 489.02 992.46 489.02 L 1035.12 489.02 C 1038.07 489.02 1040.46 491.41 1040.46 494.35 Z M 1013.79 510.35 L 1013.82 510.35 M 1024.46 510.35 L 1024.48 510.35 M 1003.12 510.35 L 1003.15 510.35" stroke="#000000" stroke-width="2" fill="none" fill-opacity="1" stroke-opacity="1" vector-effect="non-scaling-stroke" />
</svg>